<svg width="320" height="320" viewBox="0 0 320 320" fill="none" xmlns="http://www.w3.org/2000/svg">
<circle cx="160" cy="152" r="146" fill="#E5E5E5"/>
<rect x="115" y="65" width="14" height="189" rx="3" fill="#632E00"/>
<rect x="264" y="122" width="14" height="209" rx="3" transform="rotate(90 264 122)" fill="#632E00"/>
<rect x="264" y="180" width="14" height="209" rx="3" transform="rotate(90 264 180)" fill="#632E00"/>
<rect x="129" y="65" width="14" height="74" rx="3" transform="rotate(90 129 65)" fill="#632E00"/>
<rect x="55" y="254" width="14" height="74" rx="3" transform="rotate(-90 55 254)" fill="#632E00"/>
<rect x="55" y="122" width="14" height="72" rx="3" fill="#632E00"/>
<rect x="85" y="122" width="14" height="72" rx="3" fill="#632E00"/>
<rect x="196" y="152" width="14" height="72" rx="3" transform="rotate(90 196 152)" fill="#632E00"/>
<rect x="153" y="65" width="14" height="64" rx="3" fill="#632E00"/>
<rect x="153" y="182" width="14" height="72" rx="3" fill="#632E00"/>
<rect x="220" y="122" width="14" height="72" rx="3" fill="#632E00"/>
<rect x="250" y="122" width="14" height="72" rx="3" fill="#632E00"/>
<rect x="264" y="65" width="14" height="67" rx="3" transform="rotate(90 264 65)" fill="#632E00"/>
<rect x="197" y="253" width="14" height="67" rx="3" transform="rotate(-90 197 253)" fill="#632E00"/>
<rect x="129" y="89" width="14" height="70" rx="3" transform="rotate(90 129 89)" fill="#632E00"/>
<rect x="59" y="230" width="14" height="70" rx="3" transform="rotate(-90 59 230)" fill="#632E00"/>
<rect x="260" y="87" width="14" height="63" rx="3" transform="rotate(90 260 87)" fill="#632E00"/>
<rect x="197" y="228" width="14" height="63" rx="3" transform="rotate(-90 197 228)" fill="#632E00"/>
<rect x="190" y="65" width="14" height="188" rx="3" fill="#632E00"/>
</svg>
