<svg id="visual" viewBox="0 0 600 900" width="600" height="900" xmlns="http://www.w3.org/2000/svg" xmlns:xlink="http://www.w3.org/1999/xlink" version="1.1"><rect x="0" y="0" width="600" height="900" fill="#001220"></rect><defs><linearGradient id="grad1_0" x1="0%" y1="0%" x2="100%" y2="100%"><stop offset="30%" stop-color="#fb8500" stop-opacity="1"></stop><stop offset="70%" stop-color="#fb8500" stop-opacity="1"></stop></linearGradient></defs><defs><linearGradient id="grad1_1" x1="0%" y1="0%" x2="100%" y2="100%"><stop offset="30%" stop-color="#fb8500" stop-opacity="1"></stop><stop offset="70%" stop-color="#f15b3e" stop-opacity="1"></stop></linearGradient></defs><defs><linearGradient id="grad1_2" x1="0%" y1="0%" x2="100%" y2="100%"><stop offset="30%" stop-color="#d43d5a" stop-opacity="1"></stop><stop offset="70%" stop-color="#f15b3e" stop-opacity="1"></stop></linearGradient></defs><defs><linearGradient id="grad1_3" x1="0%" y1="0%" x2="100%" y2="100%"><stop offset="30%" stop-color="#d43d5a" stop-opacity="1"></stop><stop offset="70%" stop-color="#a8326a" stop-opacity="1"></stop></linearGradient></defs><defs><linearGradient id="grad1_4" x1="0%" y1="0%" x2="100%" y2="100%"><stop offset="30%" stop-color="#73316b" stop-opacity="1"></stop><stop offset="70%" stop-color="#a8326a" stop-opacity="1"></stop></linearGradient></defs><defs><linearGradient id="grad1_5" x1="0%" y1="0%" x2="100%" y2="100%"><stop offset="30%" stop-color="#73316b" stop-opacity="1"></stop><stop offset="70%" stop-color="#402d5c" stop-opacity="1"></stop></linearGradient></defs><defs><linearGradient id="grad1_6" x1="0%" y1="0%" x2="100%" y2="100%"><stop offset="30%" stop-color="#162240" stop-opacity="1"></stop><stop offset="70%" stop-color="#402d5c" stop-opacity="1"></stop></linearGradient></defs><defs><linearGradient id="grad1_7" x1="0%" y1="0%" x2="100%" y2="100%"><stop offset="30%" stop-color="#162240" stop-opacity="1"></stop><stop offset="70%" stop-color="#001220" stop-opacity="1"></stop></linearGradient></defs><defs><linearGradient id="grad2_0" x1="0%" y1="0%" x2="100%" y2="100%"><stop offset="30%" stop-color="#fb8500" stop-opacity="1"></stop><stop offset="70%" stop-color="#fb8500" stop-opacity="1"></stop></linearGradient></defs><defs><linearGradient id="grad2_1" x1="0%" y1="0%" x2="100%" y2="100%"><stop offset="30%" stop-color="#f15b3e" stop-opacity="1"></stop><stop offset="70%" stop-color="#fb8500" stop-opacity="1"></stop></linearGradient></defs><defs><linearGradient id="grad2_2" x1="0%" y1="0%" x2="100%" y2="100%"><stop offset="30%" stop-color="#f15b3e" stop-opacity="1"></stop><stop offset="70%" stop-color="#d43d5a" stop-opacity="1"></stop></linearGradient></defs><defs><linearGradient id="grad2_3" x1="0%" y1="0%" x2="100%" y2="100%"><stop offset="30%" stop-color="#a8326a" stop-opacity="1"></stop><stop offset="70%" stop-color="#d43d5a" stop-opacity="1"></stop></linearGradient></defs><defs><linearGradient id="grad2_4" x1="0%" y1="0%" x2="100%" y2="100%"><stop offset="30%" stop-color="#a8326a" stop-opacity="1"></stop><stop offset="70%" stop-color="#73316b" stop-opacity="1"></stop></linearGradient></defs><defs><linearGradient id="grad2_5" x1="0%" y1="0%" x2="100%" y2="100%"><stop offset="30%" stop-color="#402d5c" stop-opacity="1"></stop><stop offset="70%" stop-color="#73316b" stop-opacity="1"></stop></linearGradient></defs><defs><linearGradient id="grad2_6" x1="0%" y1="0%" x2="100%" y2="100%"><stop offset="30%" stop-color="#402d5c" stop-opacity="1"></stop><stop offset="70%" stop-color="#162240" stop-opacity="1"></stop></linearGradient></defs><defs><linearGradient id="grad2_7" x1="0%" y1="0%" x2="100%" y2="100%"><stop offset="30%" stop-color="#001220" stop-opacity="1"></stop><stop offset="70%" stop-color="#162240" stop-opacity="1"></stop></linearGradient></defs><g transform="translate(600, 0)"><path d="M0 540.8C-45.5 549.7 -90.9 558.5 -120.3 527.3C-149.7 496.1 -163.1 424.8 -189.2 392.8C-215.3 360.8 -254.1 368 -283.7 355.7C-313.3 343.5 -333.6 311.7 -356.5 284.3C-379.4 256.9 -405 233.8 -428.9 206.5C-452.7 179.2 -474.9 147.7 -493.3 112.6C-511.7 77.5 -526.3 38.7 -540.8 0L0 0Z" fill="#081b30"></path><path d="M0 473.2C-39.8 480.9 -79.6 488.7 -105.3 461.4C-131 434.1 -142.7 371.7 -165.5 343.7C-188.4 315.7 -222.3 322 -248.2 311.3C-274.1 300.5 -291.9 272.8 -312 248.8C-332 224.8 -354.4 204.6 -375.3 180.7C-396.1 156.8 -415.6 129.3 -431.6 98.5C-447.7 67.8 -460.5 33.9 -473.2 0L0 0Z" fill="#29284f"></path><path d="M0 405.6C-34.1 412.2 -68.2 418.9 -90.3 395.5C-112.3 372.1 -122.3 318.6 -141.9 294.6C-161.4 270.6 -190.6 276 -212.8 266.8C-235 257.6 -250.2 233.8 -267.4 213.2C-284.6 192.7 -303.7 175.4 -321.6 154.9C-339.5 134.4 -356.2 110.8 -370 84.4C-383.8 58.1 -394.7 29.1 -405.6 0L0 0Z" fill="#593065"></path><path d="M0 338C-28.4 343.5 -56.8 349 -75.2 329.5C-93.6 310 -101.9 265.5 -118.2 245.5C-134.5 225.5 -158.8 230 -177.3 222.3C-195.8 214.7 -208.5 194.8 -222.8 177.7C-237.2 160.6 -253.1 146.1 -268 129.1C-283 112 -296.8 92.3 -308.3 70.4C-319.8 48.4 -328.9 24.2 -338 0L0 0Z" fill="#8e326d"></path><path d="M0 270.4C-22.7 274.8 -45.5 279.2 -60.2 263.6C-74.9 248 -81.5 212.4 -94.6 196.4C-107.6 180.4 -127.1 184 -141.8 177.9C-156.6 171.7 -166.8 155.9 -178.3 142.2C-189.7 128.5 -202.5 116.9 -214.4 103.3C-226.4 89.6 -237.5 73.9 -246.7 56.3C-255.8 38.7 -263.1 19.4 -270.4 0L0 0Z" fill="#bf3664"></path><path d="M0 202.8C-17.1 206.1 -34.1 209.4 -45.1 197.7C-56.2 186 -61.2 159.3 -70.9 147.3C-80.7 135.3 -95.3 138 -106.4 133.4C-117.5 128.8 -125.1 116.9 -133.7 106.6C-142.3 96.3 -151.9 87.7 -160.8 77.4C-169.8 67.2 -178.1 55.4 -185 42.2C-191.9 29.1 -197.3 14.5 -202.8 0L0 0Z" fill="#e54a4d"></path><path d="M0 135.2C-11.4 137.4 -22.7 139.6 -30.1 131.8C-37.4 124 -40.8 106.2 -47.3 98.2C-53.8 90.2 -63.5 92 -70.9 88.9C-78.3 85.9 -83.4 77.9 -89.1 71.1C-94.9 64.2 -101.2 58.5 -107.2 51.6C-113.2 44.8 -118.7 36.9 -123.3 28.1C-127.9 19.4 -131.6 9.7 -135.2 0L0 0Z" fill="#f96f29"></path><path d="M0 67.6C-5.7 68.7 -11.4 69.8 -15 65.9C-18.7 62 -20.4 53.1 -23.6 49.1C-26.9 45.1 -31.8 46 -35.5 44.5C-39.2 42.9 -41.7 39 -44.6 35.5C-47.4 32.1 -50.6 29.2 -53.6 25.8C-56.6 22.4 -59.4 18.5 -61.7 14.1C-64 9.7 -65.8 4.8 -67.6 0L0 0Z" fill="#fb8500"></path></g><g transform="translate(0, 900)"><path d="M0 -540.8C38.9 -516.4 77.9 -492 105.3 -461.1C132.6 -430.3 148.5 -393 188.3 -391C228.1 -389 291.9 -422.2 330.4 -414.4C369 -406.6 382.5 -357.7 401.9 -320.5C421.3 -283.2 446.7 -257.5 470.3 -226.5C493.9 -195.4 515.8 -159 527.3 -120.3C538.7 -81.7 539.8 -40.9 540.8 0L0 0Z" fill="#081b30"></path><path d="M0 -473.2C34.1 -451.9 68.1 -430.5 92.1 -403.5C116.1 -376.5 129.9 -343.9 164.8 -342.1C199.6 -340.4 255.4 -369.4 289.1 -362.6C322.9 -355.7 334.6 -313 351.6 -280.4C368.6 -247.8 390.8 -225.4 411.5 -198.2C432.2 -171 451.3 -139.1 461.4 -105.3C471.4 -71.5 472.3 -35.7 473.2 0L0 0Z" fill="#29284f"></path><path d="M0 -405.6C29.2 -387.3 58.4 -369 78.9 -345.9C99.5 -322.7 111.4 -294.8 141.2 -293.3C171.1 -291.7 218.9 -316.6 247.8 -310.8C276.8 -304.9 286.8 -268.3 301.4 -240.4C316 -212.4 335 -193.2 352.7 -169.9C370.5 -146.6 386.9 -119.2 395.5 -90.3C404 -61.3 404.8 -30.6 405.6 0L0 0Z" fill="#593065"></path><path d="M0 -338C24.3 -322.8 48.7 -307.5 65.8 -288.2C82.9 -268.9 92.8 -245.7 117.7 -244.4C142.6 -243.1 182.4 -263.9 206.5 -259C230.6 -254.1 239 -223.6 251.2 -200.3C263.3 -177 279.2 -161 293.9 -141.6C308.7 -122.1 322.4 -99.4 329.5 -75.2C336.7 -51.1 337.4 -25.5 338 0L0 0Z" fill="#8e326d"></path><path d="M0 -270.4C19.5 -258.2 38.9 -246 52.6 -230.6C66.3 -215.2 74.3 -196.5 94.2 -195.5C114.1 -194.5 145.9 -211.1 165.2 -207.2C184.5 -203.3 191.2 -178.9 200.9 -160.2C210.6 -141.6 223.3 -128.8 235.2 -113.2C247 -97.7 257.9 -79.5 263.6 -60.2C269.4 -40.9 269.9 -20.4 270.4 0L0 0Z" fill="#bf3664"></path><path d="M0 -202.8C14.6 -193.7 29.2 -184.5 39.5 -172.9C49.7 -161.4 55.7 -147.4 70.6 -146.6C85.5 -145.9 109.4 -158.3 123.9 -155.4C138.4 -152.5 143.4 -134.1 150.7 -120.2C158 -106.2 167.5 -96.6 176.4 -84.9C185.2 -73.3 193.4 -59.6 197.7 -45.1C202 -30.6 202.4 -15.3 202.8 0L0 0Z" fill="#e54a4d"></path><path d="M0 -135.2C9.7 -129.1 19.5 -123 26.3 -115.3C33.2 -107.6 37.1 -98.3 47.1 -97.8C57 -97.2 73 -105.5 82.6 -103.6C92.3 -101.6 95.6 -89.4 100.5 -80.1C105.3 -70.8 111.7 -64.4 117.6 -56.6C123.5 -48.9 129 -39.7 131.8 -30.1C134.7 -20.4 134.9 -10.2 135.2 0L0 0Z" fill="#f96f29"></path><path d="M0 -67.6C4.9 -64.6 9.7 -61.5 13.2 -57.6C16.6 -53.8 18.6 -49.1 23.5 -48.9C28.5 -48.6 36.5 -52.8 41.3 -51.8C46.1 -50.8 47.8 -44.7 50.2 -40.1C52.7 -35.4 55.8 -32.2 58.8 -28.3C61.7 -24.4 64.5 -19.9 65.9 -15C67.3 -10.2 67.5 -5.1 67.6 0L0 0Z" fill="#fb8500"></path></g></svg>